# xmcd
#
# Track frame offsets: 
#        150
#        21110
#        38937
#        60197
#        76535
#        93010
#        102447
#        118905
#        132355
#        149490
#
# Disc length: 2389 seconds
#
# Revision: 3
# Processed by: cddbd v1.5.2PL0 Copyright (c) Steve Scherf et al.
# Submitted via: ExactAudioCopy v1.1
#
DISCID=7a09530a
DTITLE=Samson - Head On
DYEAR=1980
DGENRE=Hard Rock
TTITLE0=Hard Times
TTITLE1=Take It Like A Man
TTITLE2=Vice Versa
TTITLE3=Manwatcher
TTITLE4=Too Close To Rock
TTITLE5=Thunderburst
TTITLE6=Hammerhead
TTITLE7=Hunted
TTITLE8=Take Me To Your Leader
TTITLE9=Walking Out On You
EXTD=YEAR: 1980
EXTT0=
EXTT1=
EXTT2=
EXTT3=
EXTT4=
EXTT5=
EXTT6=
EXTT7=
EXTT8=
EXTT9=
PLAYORDER=
